<svg xmlns="http://www.w3.org/2000/svg" xml:space="preserve" viewBox="0 0 365 332">
    <path fill="#ababaa"
        d="M182.5 330.2a187 187 0 0 1-39.8-23.7A246 246 0 0 1 91 254c-.2-.3-.3-8-.3-23.5-.1-29.2 0-33.9.2-33.6.2.2 1 2.4 2 5a184.6 184.6 0 0 0 42.6 65.5 189.2 189.2 0 0 0 46.7 35.5l4 2.1 3.2-1.6a173.6 173.6 0 0 0 33.4-22.1c8.2-6.8 17.5-16.2 25.6-26l3.4-3.8c.1 0 2.5 1.7 5.2 3.9l6.5 5c6.5 5 8 6.3 8 6.6 0 1.1-13.3 15.7-21 23a215.4 215.4 0 0 1-49.6 35.6c-4.7 2.4-14 6.4-14.5 6.4l-3.9-1.6zm-149-22.4c-.1 0-.2-45.3-.2-100v-100l-1.4-1-6.6-5.3c-5.8-4.6-10.7-8.4-19.5-15a75.3 75.3 0 0 1-6-4.6c0-.2 0-.5.2-.6.5-.2 84.1-.3 84.5 0 .3.2.4 7 .4 31.8l.1 31.6 41.7.2v-31.6c0-24.2 0-31.6.3-32 .3-.2 6.3-.3 25.5-.3 14 0 25.4.1 25.6.2.4.1.4 7.5.4 80.4 0 79.1 0 80.3-.5 80.5-.3.2-8.8.3-25.5.3-21.6 0-25 0-25.4-.4-.3-.3-.4-4-.4-26.5 0-20.3-.1-26.2-.4-26.3-.5-.3-40.7-.3-41 0-.3.3-.4 6-.4 31v31.4c0 .4-.8 1.4-2.2 2.9l-4.5 5-17.8 19.9L41.9 300c-5 5.7-7.7 8.5-8 8.5l-.5-.2zM44 289.3A1184.4 1184.4 0 0 1 68 263l8.8-9.9 3.1-3.4v-65.7l.7-.3c.9-.3 50.4-.3 50.9 0 .3.2.4 3.5.5 26.5v26.3l4 .2c5.7.2 36.2.1 37-.1l.6-.3v-75c0-41.2-.1-75.2-.2-75.4-.1-.4-2.2-.4-20.8-.4H132V117c-.1 27.8-.2 31.7-.6 32-.2 0-10.2.2-25.7.2-24.8 0-25.3 0-25.6-.5-.1-.4-.2-10.8-.2-32V85.5h-33c-19.6 0-32.8 0-32.8.2l1.7 1.5 5 3.8a465.4 465.4 0 0 0 15.4 12l2.2 1.8v94.9c0 52.2 0 95 .2 95 .3.4.8-.2 5.5-5.4zm-3.9.8c-.1-.1-.2-42.1-.2-93.3v-93.1l-2-1.6-16-12.3a11.4 11.4 0 0 1-2.5-2.4c0-.2 8.4-.3 29.4-.3H78v63.6l55.3-.1v-31.5c0-17.3.2-31.6.2-31.8.1-.3 4.1-.3 19.1-.3l19 .1v148h-38l-.2-52.8-.6-.1c-.3-.1-12.7-.2-27.6-.1h-27l-.1 67-.7.8-6 6.7-6.4 7.2a908.7 908.7 0 0 1-24.6 26.7c-.2 0-.4 0-.5-.2zm286 12.4-11.9-9.3a947.2 947.2 0 0 0-19-15l-20.5-15.9-20-15.6-6.4-5h-34.8l-8.6-.1-2-1.5a224 224 0 0 1-9.9-8l-5-4-2.1-1.8-.2-127 .6-.6c.3-.4 2.6-2.3 5-4.3A317.1 317.1 0 0 0 203.7 84l4.3-3.6h104l1.9 1.5a992.6 992.6 0 0 0 11 8.7l4.9 3.9c1.5 1.2 2.7 2.3 2.8 2.5l.1 60.4v60l.8.6c.8.7 9 6.8 16.3 12 15.5 11.3 15.3 11 14.9 11.4-.1 0-11.3.2-24.8.2s-24.7.2-24.8.2c-.2.2 2.7 3.2 12 12l5.7 5.4V283c-.1 17.3-.2 23.8-.4 24-.2 0-3-2-6.4-4.7zm1.6-9.8V261.4l-3.6-3.5-12-11.9c-4.7-4.6-8.6-8.5-8.6-8.8 0-.4.9-.4 8.7-.4l37.5-.3c.1-.2-7.8-6.1-16.7-12.6l-5.2-3.8v-8.7a70156 70156 0 0 1-.2-110.2V99l-3.7-3a383 383 0 0 0-9.8-7.7l-3.8-3h-100l-3.4 2.9-6.6 5.5c-5 4-8.8 7.5-9 8l-.1 61c0 55.8 0 60.8.4 61.2.8.7 6.5 5.5 11 9l4.4 3.6h43.3l2 1.7a2028.1 2028.1 0 0 1 35 27.1l7.9 6.1c5.6 4.5 15.4 12.1 18.7 14.6l6 4.8c4.8 3.7 7.7 6 7.9 6l.3-4.2zm-7.3-3.3-13.2-10.3-10.9-8.6-8.5-6.6a2894.4 2894.4 0 0 0-36.8-28.7c-.4-.2-7.3-.3-22-.3h-21.7l-3.2-2.6-7.1-5.8-4.2-3.4c-.3-.4-.3-12.8-.3-60.5v-60.1l4.5-3.9 9.1-7.7 4.5-3.8h99l3.6 2.7 8.2 6.3 4.8 3.7.2 60.7v60.7l3.8 2.7c9 6.5 14.2 10.3 14.2 10.7 0 .3-2.5.4-17.4.4-17.2 0-28.2.2-28.1.5l13.6 13.3L326 262v15.6c0 12.3 0 15.6-.3 15.6-.2 0-2.6-1.7-5.3-3.8zM273.8 205c0-.2-2.7-2.9-5.9-6-5.3-5-6.4-6.3-5.8-6.4h13.1l12.8-.2v-75.8h-57.4v44.2c0 35.2 0 44.2.2 44.4.2.1 10 .2 21.7.2 17.8 0 21.4 0 21.3-.3zm-41.3-2c-.4-.3-.4-4.5-.4-42.2s0-42 .4-42.3c.4-.4 3.2-.4 26.7-.4 17.6 0 26.5 0 26.8.2.5.3.5 1 .5 36.1v35.8l-.7.3c-.4.2-6.1.3-14.6.3a61 61 0 0 0-13.9.3 28 28 0 0 0 3.7 3.8 43 43 0 0 1 8 8c0 .5-.8.6-18.1.6-16.1 0-18.2 0-18.5-.5zm24.5-4.8a83 83 0 0 0-5.7-5.9 40.7 40.7 0 0 1-5.6-6c0-.4 1.8-.4 17.9-.5l17.9-.2v-62.4h-21.8c-16 0-22 0-22.2.2-.5.4-.6 74.7 0 74.9a197.8 197.8 0 0 0 19.5-.1zm-14.4-5.3c-.2-.3.2-.6.5-.3.2.2.2.6 0 .6s-.4-.1-.5-.3zm0-12.6-.1-16.8V147h.7a138 138 0 0 1 32.9 10.7c.1.2.2 5.3.2 11.3 0 8.2 0 11.1-.3 11.3-.3.3-4.3.3-16.8.3l-16.6-.1zm31.6-30.5a187 187 0 0 0-31.4-10c-.4-.8-.4-10.7 0-11.1.3-.3 4.3-.3 16.7-.3 16 0 16.3 0 16.6.5.2.3.3 4 .2 10.9 0 10.2 0 10.4-.6 10.5-.3 0-1-.2-1.4-.5zm-88.7 144c-.3-.3-.3-60.8 0-61.2a750.7 750.7 0 0 0 14.8 12l2.8 2.4h19.7c.3.1 1 1.3 1.7 2.6 2.1 4.2 5.7 12.4 5.6 13-.3 1.3-16.4 14.2-25.4 20.2A181.1 181.1 0 0 1 186 294c-.2 0-.4 0-.4-.2zm-9.3-6a150 150 0 0 1-19-15.6 212.8 212.8 0 0 1-1.2-25.1c.5-.3 16.4-.3 17 0 .3.2 1.5 6.7 3 16.3.5 3.2 1.3 7.1 1.7 8.7a187.6 187.6 0 0 1 3.5 19.2 62 62 0 0 1-5-3.6zm-31.5-26.6a172.9 172.9 0 0 1-13.1-13.6c-.2-.4.1-.4 3.3-.6h14.3l.2 1.6a227 227 0 0 1 1 15.4c0 1.5 0 2-.3 2-.2 0-2.6-2.2-5.4-4.8zm89.9-3.8-1-2-2.2-5c-1-2.3-1.3-3.1-1-3.3.5-.3 13.8-.3 14 0 .1.2-.2.8-.6 1.3-1.8 2.1-8.6 9.3-8.8 9.3l-.4-.3zm-116-26.5-4.1-6.5c-3-5-8.3-16.2-9.4-19.6-.4-1-.3-1 1-3.4.9-1.3 2.1-3.5 2.8-5l1.3-2.5h11.5v20.5c0 11.5-.1 20.5-.3 20.5a34 34 0 0 1-2.8-4zm-16.8-36c-.2-.7 0-1 .5-1s.7.4.5 1c-.2.8-.8.7-1 0zm-5-58.9c-.6-.6.2-43.1 1-51.6 0-1 .3-1.6.4-1.6.5 0 6 5.6 8.3 8.3 3 3.7 4.4 6 6.7 10.8a54.1 54.1 0 0 1 5.3 32.6 237.4 237.4 0 0 1-21.7 1.5zm24.5-30.5-1.3-3a74 74 0 0 0-19.3-25.7l-2.3-1.9v-1.7l.4-7c.3-4.3.4-5.3.8-5.6a374.3 374.3 0 0 0 10.9-4.3c3.4-1.3 4.2-1.6 4.5-1.3.5.5 3.5 9.4 5.2 15.2l1.4 5V87c.1 15.8 0 19.3-.4 18.4zm64.5-16.4c0-2.7 0-3-.6-3-.4 0-.5-.1-.5-1.2l-.2-5.5-.2-4.2-8.6-.1v-.7c0-1 2.8-10.6 4.1-13.9 3.6-9 9.8-18.9 15-23.5l1.3-1.1 5.7 1.4a383 383 0 0 1 51.4 16.3c0 .1-1.2.9-2.7 1.6-4 2-7 3.7-11 6.3-3.6 2.4-4 3-1.3 1.9a140 140 0 0 1 21.1-7.3c2.2 0 10.4 7.3 14 12.5 2 2.8 3.4 5.2 3.6 5.9 0 .5-.1.5-35.5.6l-35.6.2-4 3.5A217 217 0 0 1 186 92l-.1-2.9zm-131-14.4a425.2 425.2 0 0 1 3.6-35.2c0-1 15.7-7.7 30.3-13A591.8 591.8 0 0 1 149 7.8c1-.2 1.3 0 3.6 1.5 5.8 3.9 13.7 9.5 18.2 13 4.7 3.6 5.7 4.5 5.5 4.8l-4.6 1a702.3 702.3 0 0 0-50 13.5c-9.3 3-29.2 10-37 13.2-2 .8-2 .9-2.2 3-1 9.5-1.8 16.7-2 17-.3.2-3.2.3-13 .3-11.3 0-12.7 0-12.8-.4zm73 .2-1-3.7a218.1 218.1 0 0 0-5.8-18.4c.1-.5 30.5-10.4 30.8-10.1l-.5 4.3a285.7 285.7 0 0 0-2.3 26.3l-.2 1.7h-10.4c-7 0-10.4 0-10.5-.2zm29.4-.2a179.4 179.4 0 0 1 5.2-34.7c.2-.7 1.4-1 15.3-4.5 6.9-1.8 8.1-2 9.3-1.9l1.8.4c.3.2-.3 1-2.4 3.6a85.1 85.1 0 0 0-4.4 6 100.2 100.2 0 0 0-12.3 29.6l-.5 1.8h-6c-5 0-5.9 0-6-.4zm136 .2c-.3-.2-.2-1.3 0-1.5.4-.2 7.8 1 8.4 1.4.4.2-.7.3-3.9.3a32 32 0 0 1-4.5-.2zm23.8-2.7a599.4 599.4 0 0 0-24.5-5.3 11 11 0 0 1-.5-2.5c-.5-4.3-1-8.2-1.3-8.4 0 0-3.1-1.4-6.8-2.8a554 554 0 0 0-87.6-26c-8-1.7-10-2-11.2-2l-1.3.2-2.9-2.3a456.9 456.9 0 0 0-22.8-17.3 720.3 720.3 0 0 1 27.8-6.2c1-.2 2.6 0 15.3 2.8a774 774 0 0 1 57.2 15 487.5 487.5 0 0 1 54 20c2.3 1.1 3.2 1.6 3.3 2 .4 1.9 2.5 23.8 3 30.2.1 3.1.2 3-1.7 2.6z" />
    <path fill="#e79654"
        d="M34.5 308.2c-.1 0-.2-45.2-.2-100v-100l-1.6-1.2-6.2-4.9c-5-4-12-9.3-20-15.3-3-2.2-5.4-4.2-5.4-4.5C1 82 6 82 43 82c39.8 0 42 0 42.2.4l.3 31.7c0 17.2 0 31.3.2 31.4a739.4 739.4 0 0 0 41.6-.1c.2-.3.3-8.8.3-31.8V82h25.5c14.5-.1 25.5 0 25.6.1.2.3.3 160 0 160-.1.3-50 .4-50.8.1-.3-.1-.4-2.7-.4-26.3 0-14.4 0-26.2-.2-26.4-.2-.3-4.5-.3-21-.3l-20.8.1-.1 31.5-.2 31.5-2.5 2.8-4.5 5a1689.2 1689.2 0 0 1-24.2 27 707.3 707.3 0 0 1-19.4 21.4s-.3 0-.3-.2zm9.4-17A3135 3135 0 0 0 62.1 271a542.2 542.2 0 0 0 16.4-18.2l2.4-2.8v-32.6c0-25 0-32.7.3-33 .5-.4 50.5-.4 51 0 .3.3.4 6.5.4 26.3l.1 26.3c.2.4 2.2.4 20.8.4 12.8 0 20.7 0 20.7-.2.1-.2.2-34.2.2-75.6 0-59.5-.1-75.4-.4-75.5-.4-.3-40.4-.3-41-.1-.5.1-.5 3.2-.5 31.6 0 24.1 0 31.5-.3 31.7-.5.5-50.5.5-51 0-.3-.2-.3-7.6-.3-31.6 0-26 0-31.3-.4-31.6-.5-.4-65.8-.3-66 .1 0 .2.5.7 1.2 1.2l5 3.8 8.5 6.6c6.6 5 9.2 7.1 9.5 7.6l.3 88.4v94.9c0 5.7.1 7 .4 7 .2 0 2.2-2.1 4.5-4.6zm-2.8-.7c0-.1-.2-41.9-.2-92.9 0-62.6 0-92.9-.2-93.2-.2-.3-2.2-2-4.6-3.8-12.4-9.4-15.6-12-15.4-12.4.1-.1 11.2-.2 29.1-.2h28.9l.1.7v31.4l.1 31.2c.2.4 1.7.5 27.7.4h27.6l.2-31.6c0-21.6.2-31.6.4-31.8.2-.2 6-.2 18.9-.2h18.6v147l-18.6.2c-16.6 0-18.6 0-19-.4-.4-.4-.4-3-.4-26.6v-26.2l-55.4.1-.1 66.8-.6.8a2349.8 2349.8 0 0 1-36.7 40.6c-.1 0-.3 0-.4-.2zm290 15.8a2123.2 2123.2 0 0 1-26.8-21l-13.9-10.8-11.9-9.3a1409.8 1409.8 0 0 1-15.3-12c-4.2-3.1-11-8.3-12.4-9.6l-1.3-1-43.7-.4-1.8-1.3-6-4.9a386.2 386.2 0 0 0-10.7-8.7c-.5-.5-.6-1.8-.5-63.7 0-34.7.1-63.3.2-63.6.1-.4.6-.8 6.7-5.8a381.6 381.6 0 0 0 13.6-11.5l1.5-1.2h104l4 3a480 480 0 0 1 12.8 10.3l3.7 2.9v60c0 40 0 60.3.2 60.7a523.4 523.4 0 0 1 18.6 14c9.6 6.8 12.8 9.2 12.8 9.5 0 .4-3.4.4-24.6.5-20 .1-24.6.2-24.5.5a1938.4 1938.4 0 0 1 13.7 13.7l3.8 3.7v23.4c.2 17.2.1 23.5-.1 23.8-.3.4-.6.2-2.1-1zm-2.5-26.5V262l-3.1-3a620.2 620.2 0 0 1-21-20.8c0-.2.4-.4.7-.5.3-.1 10.7-.2 23-.2 13 0 22.5 0 22.6-.2.1-.3-7-5.7-16.5-12.6-3-2.2-5.2-4-5.3-4.3-.2-.4-.3-26.1-.3-60.5 0-47.5 0-60-.3-60.3-.2-.3-2.3-2-4.6-3.8l-8.4-6.6-4.2-3.4h-101l-1.1 1-8.4 7.1-6.8 5.8-2.7 2.4V224.4l2.6 2.2 8 6.5 5.3 4.3h43l1 .7a4417.4 4417.4 0 0 0 47 36.6l9.1 7c20.5 16 20.4 16 20.8 15.9.1 0 .2-8 .2-18zm-7.5 10.1-13.7-10.6-12-9.4a5313.9 5313.9 0 0 1-36.8-28.8l-6.8-5.3h-15.5a1106.4 1106.4 0 0 1-24.7-.3h-3.7l-3.7-3-7-5.8-3.6-3s-.2-27.2-.2-60.3v-60.1l3.8-3.2 9-7.5 5-4.4h99.2l3.6 2.7 8.2 6.3 4.5 3.6.2 121 3.9 2.7c8 5.8 13.7 10 13.8 10.3 0 .5-5.8.7-26 .7-11.1 0-19.2 0-19.2.2l9.2 9.2 13.8 13.5 4.5 4.5v14.9l-.1 15.3-.4.4-5.1-3.8zM275 206.1c.3-.2-3.7-4.4-10-10.2-.9-.9-1.6-1.7-1.5-2 0-.3 1.5-.4 12.9-.5l12.8-.1-.1-38c-.1-27.2-.2-38-.4-38.2-.4-.3-56.5-.2-57.1 0-.5.3-.5 2-.5 42.5 0 23.2.1 43 .2 44.3l.2 2.2h20.4a2309.4 2309.4 0 0 1 23.1 0zm-41.4-2.3c-.5-.2-.5-84 0-84.4.4-.4 53.3-.5 53.5 0 0 .1.2 16.2.1 35.8 0 27.5 0 35.7-.3 35.8-.2.2-6.5.2-14 .3l-14.1.1-.6.4c0 .3 1.5 1.9 7.5 7.5 2.3 2.1 4.1 4 4.1 4.3 0 .3-2.6.3-17.9.3l-18.3-.1zm24.5-5-5.8-5.9c-4.1-4-5.6-5.7-5.3-5.9.2-.2 5.3-.3 17.7-.3 15 0 17.6-.2 17.8-.5.2-.2.3-2.4.2-5.9l-.2-31v-25.5l-44.3.1v74.9c.2.5 20.1.5 19.9 0z" />
    <path fill="#9658d5"
        d="M34.5 207.2c0-65 0-99.8-.3-100a234.4 234.4 0 0 1-8.6-6.9A701.7 701.7 0 0 0 2.7 82.9l-1.5-1.1 3-.2c4-.2 80 0 80.3.2.1 0 .2 11.7.2 31.6 0 17.3.1 31.5.2 31.6l21.3.2c18.4 0 21.1 0 21.4-.3.2-.3.3-12.8.3-31.8 0-25 0-31.4.3-31.5h25.2l24.9.1v160l-50.4.2v-26c0-16.1-.1-26.1-.3-26.5l-.2-.7h-21c-16 0-21.1 0-21.3.3-.3.3-.3 7.7-.3 31.7V252l-3.4 3.8A2027.6 2027.6 0 0 0 57.9 282l-16.8 18.7a55.4 55.4 0 0 1-6.4 6.7c-.1 0-.2-44.8-.2-99.6zm6.2 87.4A588.5 588.5 0 0 0 53.9 280l12.5-13.7a532.3 532.3 0 0 0 14.2-15.9c.3-.4.4-4.7.5-33.2l.1-32.7 50.4-.1v26c0 17.6.1 26.3.3 26.7.3.5.8.5 21.1.5 15.9 0 20.9-.1 21.2-.4.2-.2.3-17.5.3-76 0-74.7 0-75.8-.5-76a679 679 0 0 0-41.9 0c-.4.3-.5 2.6-.5 31.8v31.5H81.1l-.1-31.4c-.1-30.7-.2-31.4-.7-31.8a1766.6 1766.6 0 0 0-66.7-.2c-.8.3-.4 1.1 1.4 2.4l5.5 4.2a516 516 0 0 0 14.3 11l2.9 2.4.2 2.4c0 1.4.2 44.2.2 95.3 0 51.1 0 93 .2 93.1.4.4 1 .1 2.3-1.2zm0-4.6-.1-92.9c0-62.6-.1-92.9-.3-93.2-.1-.2-2.2-2-4.5-3.7-12.4-9.4-15.6-12-15.4-12.4 0-.2 11.2-.3 29-.3h29v.7c.1.4.2 14.5.1 31.4v31.2c.2.5 1.7.5 27.8.4h27.6l.1-31.5c.1-21.6.2-31.6.4-31.8.2-.2 6.1-.3 19-.2h18.5v147h-18.6c-16.6.2-18.6.1-19-.3-.3-.3-.4-3-.4-26.6v-26.2l-55.4.2v66.8l-.7.7A2349.8 2349.8 0 0 1 41.1 290l-.3-.1zm287 13.1a694 694 0 0 1-7.8-6.1l-8.2-6.6a663.5 663.5 0 0 0-16-12.5l-7.6-6a1213.3 1213.3 0 0 1-26.5-20.6 370.8 370.8 0 0 1-11-8.5l-2-1.6h-21.5c-15.8 0-21.6 0-22-.3-.8-.4-3.4-2.5-7.8-6.1a317.9 317.9 0 0 0-10.1-8.1l-.6-.5v-127l1-.7a620.5 620.5 0 0 1 10.7-9l5.8-5 4.1-3.4h104l2.1 1.7a1025.3 1025.3 0 0 1 17 13.4l1 1V157c0 33 .1 60.2.2 60.5.1.3 2.1 2 4.4 3.6l5.7 4.1c.8.7 3.5 2.7 6 4.4l7.5 5.5 5.2 3.8c1.2.8 2.2 1.6 2.2 1.8 0 .1-9.5.2-24.3.2-22 0-24.3 0-24.7.4-.4.5 1.5 2.4 13 13.5l4.8 4.6.1 23-.1 23.4c-.2 0-2.2-1.3-4.5-3.1zm.6-5.6c0-.3.2-8.5.2-18.3v-18l-1.8-1.7c-17.7-17.3-22-21.5-22-21.7l23.2-.3c20.4 0 22.9-.2 23-.5 0-.4-6-5.2-11.3-9-5.2-3.6-10.8-8-11-8.4-.1-.2-.2-27.4-.2-60.4V99.3l-1-1c-1-1-5-4-10-8-1.7-1.3-4-3-5-4l-1.8-1.4h-101l-1.4 1.2c-2 1.9-4.6 4.1-8.6 7.4a210.3 210.3 0 0 0-8.2 7l-1 1v123l3.2 2.7c2.7 2.4 10.8 8.9 12.4 10 .4.4 3.5.5 22.3.6l21.7.1 2.3 1.8 6.4 5a357.7 357.7 0 0 1 13 10.1 274.8 274.8 0 0 1 13.8 10.8 1945 1945 0 0 0 39 30.5c2.7 2 3.5 2.4 3.8 1.6zm-7.9-8.2-13.7-10.6-12-9.3a5313.9 5313.9 0 0 1-36.8-28.8l-6.7-5.4h-15.5a1106.4 1106.4 0 0 1-24.8-.2h-3.7l-3.7-3.1-7-5.7-3.5-3c-.1-.1-.2-27.3-.2-60.4v-60l3.7-3.2 9-7.6 5-4.4h99.2l3.6 2.8 8.2 6.3 4.5 3.5.3 121 3.8 2.8c8 5.7 13.7 10 13.8 10.3 0 .5-5.8.6-26 .6-11 0-19.2.1-19.2.2 0 .2 4.1 4.3 9.2 9.2l13.8 13.5 4.6 4.5v15c0 8.1-.1 15-.2 15.2 0 .3-.3.5-.4.5l-5-3.8zm-46.2-83.8c.4-.2-3.7-4.4-10-10.2-.9-.8-1.6-1.7-1.5-2 0-.3 1.6-.3 12.9-.5l12.8-.1-.1-38c0-27.2-.2-38-.4-38.2-.4-.3-56.5-.2-57.1.1a3960 3960 0 0 0-.3 86.7l.2 2.2H251a2309.4 2309.4 0 0 1 23.1 0zm-24.9-2.6H233v-84h26.4c25 0 26.4.1 26.6.5.2.7.2 68.2 0 69.6l-.1 1.2h-12.6c-14.3 0-16.7 0-16.7.7 0 .5 4.4 5 9 9.2 3 2.6 3.1 3 1.2 3l-17.4-.2zm8.8-4.2c0-.3-1.4-1.9-5.5-5.9-3-3-5.6-5.5-5.6-5.7 0-.4 8.2-.6 22.7-.6 8.5 0 12 0 12.3-.2a1858.9 1858.9 0 0 0 0-63.3c0-.1-10.1-.2-22.3-.2-17 0-22.4 0-22.6.3-.5.5-.5 75.8 0 76a224.7 224.7 0 0 0 21-.3z" />
    <path fill="#f56c07"
        d="M34.5 207.2c0-65 0-99.8-.3-100a234.4 234.4 0 0 1-8.6-6.9A701.7 701.7 0 0 0 2.7 82.9l-1.5-1.1 3-.2c4-.2 80 0 80.3.2.1 0 .2 11.7.2 31.6 0 17.3.1 31.5.2 31.6l21.3.2c18.4 0 21.1 0 21.4-.3.2-.3.3-12.8.3-31.8 0-25 0-31.4.3-31.5h25.2l24.9.1v160l-50.4.2v-26c0-16.1-.1-26.1-.3-26.5l-.2-.7h-21c-16 0-21.1 0-21.3.3-.3.3-.3 7.7-.3 31.7V252l-3.4 3.8A2027.6 2027.6 0 0 0 57.9 282l-16.8 18.7a55.4 55.4 0 0 1-6.4 6.7c-.1 0-.2-44.8-.2-99.6zm6.2 87.4A588.5 588.5 0 0 0 53.9 280l12.5-13.7a532.3 532.3 0 0 0 14.2-15.9c.3-.4.4-4.7.5-33.2l.1-32.7 50.4-.1v26c0 17.6.1 26.3.3 26.7.3.5.8.5 21.1.5 15.9 0 20.9-.1 21.2-.4.2-.2.3-17.5.3-76 0-74.7 0-75.8-.5-76a679 679 0 0 0-41.9 0c-.4.3-.5 2.6-.5 31.8v31.5H81.1l-.1-31.4c-.1-30.7-.2-31.4-.7-31.8a1766.6 1766.6 0 0 0-66.7-.2c-.8.3-.4 1.1 1.4 2.4l5.5 4.2a516 516 0 0 0 14.3 11l2.9 2.4.2 2.4c0 1.4.2 44.2.2 95.3 0 51.1 0 93 .2 93.1.4.4 1 .1 2.3-1.2zm.3-5.5c0-.3-.2-42.2-.2-93s0-92.5-.2-92.6L36 99.8a659.7 659.7 0 0 1-12.4-9.5L21 88.2l12.6-.2c6.9-.1 19.8-.2 28.6-.1h16v31.7c.1 31.4.1 31.7.6 32 .7.4 54.7.3 55.4 0 .5-.2.5-2 .5-31.8V88.2l2.7-.2c1.5 0 9.9-.1 18.6 0h16v147h-37.2v-26.3c0-20.1-.1-26.3-.4-26.6-.4-.4-55.7-.5-55.9 0l-.1 33.5V249l-1 1.2-25.2 28.1c-11.7 13-10.8 12-11 11.2zm287 14a694 694 0 0 1-7.9-6.2l-8.2-6.5a663.5 663.5 0 0 0-16-12.5l-7.6-6a1213.3 1213.3 0 0 1-26.5-20.6 370.8 370.8 0 0 1-10.9-8.5l-2-1.6h-21.5c-15.8 0-21.6 0-22-.3-.8-.4-3.5-2.5-7.9-6.2a317.9 317.9 0 0 0-10-8l-.6-.5v-127l1-.8a620.5 620.5 0 0 1 10.7-9l5.8-5 4-3.3H312.6l2 1.7a1025.3 1025.3 0 0 1 17 13.4l1 .9V157c0 32.9.2 60.2.3 60.5.1.3 2 2 4.4 3.6l5.6 4.1 6 4.4c2.5 1.8 5.9 4.2 7.5 5.5s4 3 5.3 3.8c1.2.8 2.1 1.6 2.1 1.7 0 .2-9.4.3-24.3.3-21.9 0-24.3 0-24.7.4-.3.4 1.6 2.4 13.1 13.5l4.8 4.6v46.4c-.2 0-2.2-1.3-4.5-3.1zm.6-5.7.1-18.3v-17.9l-1.8-1.7c-17.7-17.3-22-21.5-21.9-21.7l23.1-.3c20.4-.1 23-.2 23-.5.1-.5-5.9-5.2-11.3-9-5.1-3.7-10.8-8-11-8.4l-.1-60.4V99.3l-1-1-10-8c-1.8-1.3-4-3.1-5-4l-1.8-1.5h-101l-1.4 1.3c-2 1.9-4.7 4-8.6 7.3a210.3 210.3 0 0 0-8.2 7l-1.1 1v123l3.2 2.8c2.8 2.4 10.8 8.8 12.4 10 .5.4 3.5.4 22.3.6h21.7l2.4 2 6.3 4.8a357.7 357.7 0 0 1 13.1 10.2 274.8 274.8 0 0 1 13.8 10.7 1945 1945 0 0 0 39 30.5c2.7 2.1 3.4 2.4 3.7 1.7zm-6.4-7.4a347.3 347.3 0 0 1-15.6-12.1l-9.6-7.6-9-7a4754.1 4754.1 0 0 0-35.7-27.9l-1.2-.8h-21.6c-19.9 0-21.6 0-22.3-.5l-4.5-3.6-5.8-4.8-2.8-2.3-.9-.8v-120l2-1.7a648.3 648.3 0 0 0 15.5-13c.6-.5 4.2-.5 49.9-.4h49.2l4.1 3.2 8 6.2 3.9 3v56.5l.1 60.5c0 3 .1 4.2.4 4.5a60 60 0 0 0 4.3 3.2c6.8 4.8 12.6 9.2 12.6 9.4 0 .1-9.3.2-21.9.2-12 0-22.2.1-22.5.2-.4.1-.6.3-.5.6 0 .3 6.2 6.4 13.8 13.8l13.7 13.3v15.1l-.1 15.1-3.5-2.5zm-47-84.4c0-.2-2.6-3-6-6.3l-6-6h12.5l13-.1c.3-.1.4-3.8.4-38.3 0-21-.1-38.3-.3-38.5-.1-.3-6.2-.3-29.3-.3l-29 .1-.1 44.6c0 32.8 0 44.6.2 44.9.4.5 44.4.4 44.6 0zm-25.7-2.7h-16.3v-84h26.4c25 0 26.4.1 26.6.5.2.7.2 68.2 0 69.6l-.1 1.2h-12.6c-14.3 0-16.7 0-16.7.7 0 .5 4.4 5 9 9.2 2.9 2.6 3 3 1.2 3l-17.4-.2zm8.7-4.2c.2-.3-1.3-1.8-5.4-5.8-3-3-5.6-5.6-5.6-5.8 0-.4 8.2-.6 22.7-.6 8.5 0 12 0 12.3-.2a1858.9 1858.9 0 0 0 0-63.3c0-.1-10.1-.2-22.3-.2-17 0-22.4 0-22.6.3-.5.5-.5 75.8 0 76a224.7 224.7 0 0 0 21-.3z" />
    <path fill="#6c00ea"
        d="M322.5 290.2a347.3 347.3 0 0 1-15.6-12l-9.6-7.6-9-7a4754.1 4754.1 0 0 0-35.8-28l-1-.8h-21.7c-19.9 0-21.6 0-22.3-.4l-4.5-3.7-5.8-4.7c-1-1-2.4-2-2.8-2.4l-.9-.8v-120l2-1.7a648.3 648.3 0 0 0 15.4-13c.7-.4 4.3-.5 50-.4H310l4.2 3.3 8 6.2 3.9 3v117c0 2.9.2 4 .4 4.4a60 60 0 0 0 4.4 3.2c6.8 4.9 12.6 9.2 12.6 9.4 0 .2-9.3.3-21.9.3l-22.5.1c-.4.1-.6.4-.5.6 0 .3 6.2 6.5 13.8 13.8l13.7 13.3v15.1l-.1 15.1-3.5-2.5zm-47-84.4c0-.1-2.6-3-6-6.2l-6-6H276c6.9 0 12.7 0 13-.2.3-.1.3-3.7.3-38.3 0-21 0-38.3-.2-38.5-.1-.2-6.2-.3-29.3-.2h-29l-.1 44.6c0 32.8 0 44.6.2 45 .4.4 44.4.3 44.6-.2zm-234 83.5c0-.3-.2-42.2-.2-93s0-92.5-.2-92.6l-4.7-3.6a659.7 659.7 0 0 1-12.3-9.6l-2.7-2 12.6-.3 28.6-.1h16V120c0 31.4 0 31.7.6 32 .7.3 54.7.3 55.4-.1.5-.2.5-2 .5-31.8V88.4l2.7-.2c1.5 0 9.9-.1 18.6 0h15.9l.1 147h-37.3V209c0-20 0-26.3-.3-26.6-.4-.4-55.7-.4-55.9 0l-.1 33.6v33.3l-1 1.1-25.2 28.1c-11.7 13-10.8 12-11 11.2z" />
</svg>