<svg width="365mm" height="332mm" version="1.1" viewBox="0 0 365 332" xml:space="preserve"
    xmlns="http://www.w3.org/2000/svg">
    <g transform="translate(417 -36.7)">
        <g transform="translate(82.5 -2.06)">
            <path
                d="m-317 369c-15-6.67-25.7-13.1-39.8-23.7-18.6-14-34.9-30.2-48.7-48.5-1.48-1.96-2.82-3.81-2.98-4.1-0.19-0.358-0.303-7.98-0.349-23.5-0.0877-29.2-0.0513-33.9 0.258-33.6 0.135 0.138 1.04 2.33 2.02 4.88 9.53 24.9 22.8 45.4 42.6 65.6 10 10.3 20.4 18.9 32.4 26.8 6.78 4.5 8.88 5.77 14.3 8.7l3.9 2.09 3.25-1.63c11.5-5.76 22.6-13.1 33.4-22.1 8.2-6.81 17.5-16.2 25.6-26 1.73-2.07 3.28-3.77 3.44-3.77s2.49 1.73 5.18 3.85c2.69 2.12 5.61 4.4 6.48 5.08 6.52 5.01 8.07 6.28 8.07 6.59 0 1.1-13.4 15.7-21 22.9-16.3 15.3-32.9 27.2-49.7 35.7-4.7 2.35-14 6.41-14.5 6.39-0.147-5e-3 -1.87-0.726-3.84-1.6zm-149-22.4c-0.097-0.097-0.176-45.3-0.176-100v-100l-1.39-1.09c-0.764-0.598-3.77-2.97-6.68-5.27-5.8-4.59-10.7-8.36-19.5-14.9-3.16-2.36-5.81-4.45-5.9-4.66-0.0869-0.207-5e-3 -0.473 0.182-0.591 0.438-0.278 84.1-0.284 84.5-6e-3 0.26 0.165 0.344 6.93 0.397 31.8l0.0672 31.6 41.7 0.136v-31.6c0-24.2 0.0741-31.6 0.318-31.9 0.242-0.242 6.27-0.318 25.5-0.318 13.9 0 25.4 0.0723 25.6 0.161 0.38 0.146 0.419 7.48 0.419 80.4 0 79.1-8e-3 80.3-0.512 80.5-0.342 0.183-8.79 0.274-25.5 0.274-21.6 0-25.1-0.053-25.4-0.387-0.333-0.333-0.392-3.98-0.423-26.5-0.028-20.3-0.108-26.2-0.36-26.3-0.528-0.338-40.7-0.242-41.1 0.0985-0.284 0.235-0.346 5.95-0.341 31 4e-3 16.9 5e-3 31 3e-3 31.3-2e-3 0.378-0.793 1.45-2.16 2.91-1.18 1.27-3.24 3.56-4.56 5.09-2.35 2.71-6.34 7.17-17.8 19.8-8.15 9.04-14.9 16.6-18.5 20.6-5.07 5.73-7.64 8.47-7.96 8.47-0.165 0-0.379-0.0794-0.476-0.176zm10.5-18.5c4.84-5.43 10-11.2 17.8-19.6 2.94-3.2 5.74-6.3 6.24-6.88 1.09-1.28 4.57-5.18 8.77-9.85l3.11-3.45v-65.7l0.679-0.258c0.906-0.345 50.4-0.344 50.9 9e-4 0.348 0.22 0.406 3.51 0.468 26.5l0.0711 26.3 3.9 0.173c5.76 0.256 36.3 0.162 37-0.114l0.624-0.237v-75c0-41.2-0.0723-75.2-0.161-75.4-0.145-0.377-2.22-0.419-20.8-0.419h-20.6l-0.0781 31.6c-0.0686 27.8-0.127 31.7-0.475 31.9-0.243 0.153-10.2 0.252-25.7 0.255-24.8 4e-3 -25.3-7e-3 -25.6-0.508-0.184-0.345-0.274-10.8-0.274-31.9v-31.4h-32.9c-19.7 0-32.9 0.0972-32.9 0.241 0 0.133 0.798 0.811 1.77 1.51 0.975 0.696 3.21 2.41 4.96 3.8 1.75 1.4 5.45 4.25 8.22 6.34 2.76 2.09 6.01 4.62 7.21 5.63l2.18 1.82v94.9c0 52.2 0.0796 95 0.177 95.1 0.265 0.265 0.845-0.319 5.49-5.52zm-3.9 0.76c-0.097-0.097-0.176-42.1-0.176-93.3v-93.1l-2.05-1.58c-4.49-3.45-13.3-10.3-15.9-12.3-1.5-1.16-2.68-2.24-2.62-2.4 0.0688-0.206 8.47-0.289 29.4-0.289h29.3l0.134 63.6 55.2-0.135 0.0644-31.5c0.0354-17.3 0.121-31.6 0.191-31.8 0.1-0.264 4.06-0.318 19.1-0.265l19 0.0679v148h-38.1l-0.135-52.8-0.594-0.144c-0.327-0.0793-12.7-0.111-27.6-0.0709l-27 0.0734-0.134 66.9-0.727 0.857c-0.4 0.472-3.06 3.47-5.91 6.66-2.85 3.19-5.77 6.45-6.48 7.25-9.93 11.1-24.3 26.7-24.6 26.7-0.179 0-0.404-0.0794-0.501-0.176zm286 12.4c-3.33-2.59-8.67-6.8-11.9-9.34-3.2-2.54-7.96-6.29-10.6-8.31-2.62-2.03-6.43-5.01-8.47-6.63-3.52-2.8-7.77-6.12-20.4-15.9-5.83-4.53-9.38-7.29-20-15.6l-6.45-5.03-13.1-0.0129c-7.2-7e-3 -17-0.0369-21.7-0.0661l-8.62-0.0532-1.89-1.45c-1.04-0.796-3.05-2.41-4.48-3.58-1.42-1.17-3.89-3.17-5.47-4.44-1.59-1.27-3.85-3.09-5.03-4.04l-2.14-1.73-0.133-127 0.596-0.644c0.328-0.354 2.56-2.26 4.96-4.23 2.4-1.97 5.2-4.32 6.22-5.22 1.02-0.899 3.79-3.26 6.17-5.24l4.32-3.61h104l1.89 1.52c1.04 0.837 3.42 2.73 5.28 4.2s4.42 3.5 5.67 4.5c1.25 0.999 3.48 2.75 4.94 3.9s2.74 2.26 2.82 2.47c0.0818 0.213 0.149 27.4 0.149 60.4v60l0.739 0.619c0.875 0.733 9.09 6.79 16.3 12 15.5 11.3 15.3 11.1 14.9 11.4-0.0982 0.0982-11.3 0.204-24.8 0.235-13.5 0.0308-24.7 0.133-24.8 0.227-0.18 0.18 2.77 3.12 12.1 12l5.62 5.39-0.0675 23.8c-0.049 17.3-0.149 23.8-0.364 23.9-0.163 0.0543-3.02-2.02-6.35-4.62zm1.59-9.79c0.0902-2.29 0.131-10.3 0.0895-17.7l-0.0745-13.6-3.57-3.5c-1.96-1.93-7.4-7.26-12.1-11.9s-8.53-8.55-8.53-8.79c0-0.384 0.878-0.431 8.67-0.465 29.3-0.126 37.4-0.191 37.5-0.3 0.128-0.128-7.79-6.1-16.7-12.6l-5.19-3.79-0.0282-8.65c-0.0155-4.76-0.0602-31-0.0993-58.3-0.0391-27.3-0.0859-50.6-0.104-51.9l-0.033-2.26-3.64-2.91c-2-1.6-4.17-3.32-4.83-3.82-0.655-0.499-2.9-2.27-4.99-3.93l-3.8-3.02-100 6.9e-4 -3.38 2.88c-1.86 1.59-4.82 4.07-6.58 5.53-4.92 4.06-8.82 7.52-8.99 7.97-0.0857 0.223-0.156 27.7-0.156 61.1 0 55.7 0.0356 60.7 0.43 61.1 0.792 0.792 6.54 5.54 11 9.1l4.43 3.52 43.3 0.0836 2.08 1.6c5.68 4.38 8.13 6.28 11.1 8.6 1.76 1.39 5.28 4.12 7.83 6.07 2.55 1.95 6.36 4.92 8.47 6.61 2.11 1.69 5.5 4.34 7.54 5.9 2.04 1.55 5.56 4.29 7.82 6.07 5.66 4.47 15.4 12.1 18.7 14.6 1.5 1.16 4.23 3.31 6.08 4.76 4.74 3.74 7.64 5.94 7.83 5.95 0.0926 4e-3 0.242-1.87 0.332-4.16zm-7.28-3.31c-2.71-2.07-8.67-6.69-13.2-10.3s-9.49-7.42-10.9-8.56c-1.46-1.13-5.27-4.12-8.47-6.65-5.48-4.32-9.68-7.59-20.4-15.9-2.5-1.93-7.1-5.54-10.2-8.01s-5.93-4.62-6.23-4.78c-0.363-0.194-7.29-0.283-22.1-0.283h-21.6l-3.25-2.65c-1.79-1.46-4.97-4.04-7.08-5.73s-3.99-3.26-4.17-3.48c-0.262-0.32-0.331-12.8-0.331-60.5v-60.1l4.56-3.83c2.51-2.1 6.59-5.56 9.06-7.69l4.5-3.86 99-8e-3 3.58 2.71c1.97 1.49 5.68 4.36 8.25 6.37s4.69 3.68 4.73 3.7c0.0356 0.0264 0.125 27.4 0.198 60.7l0.134 60.7 3.7 2.65c9.09 6.5 14.2 10.3 14.2 10.7 0 0.322-2.53 0.377-17.4 0.377-17.2 6.8e-4 -28.2 0.199-28.1 0.507 0.0408 0.0872 6.18 6.09 13.6 13.3l13.6 13.2v15.6c0 12.3-0.0699 15.6-0.331 15.6-0.182-1e-3 -2.55-1.7-5.26-3.77zm-46.6-84.4c-0.0471-0.196-2.7-2.88-5.91-5.97-5.31-5.12-6.4-6.33-5.77-6.4 0.12-0.0147 5.99-0.069 13.1-0.121l12.8-0.094v-75.8h-57.4l-0.0669 44.2c-0.0533 35.2 6.9e-4 44.2 0.265 44.4 0.182 0.116 9.95 0.212 21.7 0.215 17.8 3e-3 21.4-0.0558 21.3-0.352zm-41.3-1.91c-0.374-0.374-0.416-4.58-0.416-42.3s0.0413-41.9 0.416-42.3c0.372-0.372 3.16-0.416 26.7-0.416 17.6 0 26.5 0.0904 26.8 0.274 0.502 0.269 0.512 0.951 0.512 36.1v35.8l-0.679 0.258c-0.41 0.156-6.18 0.258-14.6 0.258-11.8 0-13.9 0.0569-13.9 0.373 0 0.205 1.64 1.9 3.64 3.77 6.55 6.12 8 7.59 8 8.07 0 0.462-0.764 0.482-18.1 0.482-16.1 0-18.2-0.0459-18.5-0.416zm24.5-4.92c0-0.169-2.57-2.8-5.7-5.86-3.57-3.47-5.67-5.71-5.62-5.98 0.0744-0.386 1.78-0.44 17.9-0.559l17.9-0.132v-62.4l-21.8-0.0677c-15.9-0.0493-21.9 0.0133-22.2 0.231-0.512 0.425-0.54 74.7-0.029 74.9 0.182 0.0734 4.65 0.143 9.92 0.154 7.12 0.0155 9.59-0.0583 9.59-0.287zm-14.4-5.23c-0.181-0.292 0.237-0.608 0.481-0.364 0.252 0.252 0.205 0.61-0.0798 0.61-0.137 0-0.317-0.111-0.401-0.246zm0.0328-12.6c-0.097-0.097-0.176-7.66-0.176-16.8v-16.6l0.728 2e-3c1.14 4e-3 14.6 3.53 18.6 4.87 4.28 1.43 14 5.4 14.3 5.81 0.107 0.16 0.196 5.24 0.198 11.3 3e-3 8.2-0.0766 11.1-0.313 11.3-0.24 0.24-4.32 0.318-16.8 0.318-9.04 0-16.5-0.0794-16.6-0.176zm31.6-30.5c-1.26-0.671-9.33-3.65-14-5.17-3.55-1.16-15.9-4.38-16.8-4.38-0.217 0-0.518-0.23-0.669-0.512-0.404-0.755-0.365-10.7 0.0436-11.1 0.24-0.24 4.3-0.318 16.7-0.318 15.9 0 16.3 0.0125 16.6 0.518 0.183 0.342 0.253 4.05 0.208 10.9-0.0677 10.2-0.0805 10.4-0.598 10.5-0.291 0.0329-0.946-0.163-1.46-0.434zm-88.7 144c-0.333-0.333-0.353-60.8-0.0203-61.2 0.0576-0.0613 0.551 0.266 1.1 0.728 1.62 1.37 5.77 4.8 8.38 6.92 1.34 1.09 3.72 3.04 5.28 4.33l2.84 2.35 9.58-0.0501c5.27-0.0276 9.79 0.0314 10.1 0.131 0.26 0.0996 1.01 1.25 1.67 2.57 2.13 4.23 5.68 12.4 5.6 12.9-0.244 1.34-16.4 14.3-25.4 20.3-6.53 4.39-17.9 11.2-18.7 11.2-0.138 0-0.327-0.0766-0.421-0.17zm-9.35-6.02c-10.3-7.69-18.8-14.7-19-15.6-0.266-1.3-0.689-7.33-1.11-15.9-0.381-7.71-0.392-9.03-0.0733-9.23 0.469-0.297 16.4-0.312 16.9-0.0163 0.373 0.237 1.61 6.68 3.11 16.3 0.504 3.21 1.26 7.15 1.69 8.75 0.831 3.13 2.04 9.12 2.92 14.4 0.3 1.81 0.616 3.63 0.702 4.03 0.0899 0.419 0.0421 0.728-0.113 0.728-0.148 0-2.39-1.59-4.99-3.54zm-31.5-26.6c-4.64-4.35-12.6-12.6-13.1-13.6-0.21-0.391 0.127-0.454 3.27-0.612 1.93-0.0969 5.94-0.139 8.92-0.093l5.42 0.0831 0.172 1.59c0.0945 0.873 0.306 4.27 0.471 7.54 0.165 3.27 0.372 6.82 0.46 7.87 0.13 1.55 0.0891 1.92-0.211 1.92-0.204 0-2.63-2.12-5.4-4.71zm89.9-3.82c-0.148-0.182-0.592-1.1-0.987-2.05-0.395-0.946-1.37-3.14-2.16-4.87-1.11-2.42-1.36-3.2-1.1-3.37 0.517-0.328 13.9-0.284 14.1 0.0464 0.0926 0.15-0.212 0.715-0.677 1.26-1.8 2.09-8.58 9.32-8.75 9.32-0.096 0-0.296-0.149-0.444-0.331zm-116-26.5c-1.45-2.22-3.3-5.17-4.11-6.55-2.95-5.03-8.3-16.2-9.43-19.6-0.304-0.927-0.264-1.04 1.14-3.35 0.799-1.31 2.02-3.53 2.72-4.93l1.26-2.54h11.5v20.5c0 11.5-0.102 20.5-0.23 20.5-0.127 0-1.42-1.82-2.87-4.03zm-16.8-36c-0.178-0.68-0.0182-1.01 0.486-1.01 0.509 0 0.726 0.437 0.528 1.06-0.222 0.7-0.826 0.672-1.01-0.0483zm-5.03-58.9c-0.602-0.602 0.252-43.1 1.04-51.6 0.0837-0.91 0.28-1.65 0.435-1.65 0.499 0 6.02 5.6 8.22 8.33 2.98 3.71 4.43 5.99 6.79 10.8 4.4 8.86 6.47 18.2 5.98 26.8-0.175 3.07-0.48 5.59-0.702 5.79-0.138 0.128-8.21 0.86-13.2 1.2-7.55 0.509-8.38 0.545-8.56 0.373zm24.5-30.5c-0.176-0.364-0.751-1.73-1.28-3.04-3.42-8.5-11.8-19.6-19.3-25.7l-2.27-1.83 0.0117-1.74c6e-3 -0.956 0.169-4.11 0.362-7.01 0.282-4.24 0.433-5.33 0.773-5.58 0.232-0.17 1.83-0.823 3.54-1.45 1.72-0.628 5.02-1.89 7.35-2.81 3.5-1.38 4.29-1.61 4.58-1.32 0.501 0.5 3.51 9.38 5.14 15.2l1.39 4.95 0.0756 11.9c0.1 15.8 0.0263 19.3-0.395 18.4zm64.5-16.4c0-2.73-0.0321-2.91-0.529-2.91-0.45 0-0.535-0.188-0.565-1.26-0.0197-0.691-0.109-3.16-0.198-5.49l-0.163-4.23-8.6-0.145v-0.649c0-1.04 2.83-10.6 4.13-13.9 3.52-9.01 9.78-18.9 15-23.5l1.25-1.13 5.76 1.39c7.6 1.83 16.4 4.29 24.7 6.91 12 3.81 26.5 8.91 26.7 9.4 0.0432 0.13-1.2 0.87-2.77 1.65-4.06 2.01-6.9 3.64-10.9 6.28-3.64 2.37-4.11 3.01-1.36 1.86 7.95-3.35 19.4-7.3 21.1-7.3 2.15 0 10.4 7.34 14 12.5 1.97 2.78 3.43 5.21 3.55 5.89 0.09 0.526-0.0923 0.53-35.5 0.661l-35.6 0.132-3.96 3.57c-5.39 4.86-15.4 13.2-15.9 13.2-0.0805 0-0.146-1.31-0.146-2.91zm-131-14.4c-0.279-0.727 1.67-20.3 3.08-30.8 0.298-2.24 0.543-4.24 0.543-4.45 0-0.86 15.7-7.61 30.3-13 6.86-2.55 24.3-8.39 33.5-11.2 7.56-2.32 25.3-7.26 26.9-7.48 1.02-0.144 1.28-0.0359 3.57 1.5 5.81 3.89 13.7 9.51 18.2 13 4.72 3.67 5.76 4.57 5.52 4.8-0.0595 0.0595-2.13 0.542-4.6 1.07-11.9 2.56-34.6 8.71-49.9 13.5-9.38 2.96-29.3 10-37.1 13.2-1.9 0.764-1.94 0.817-2.17 3.05-0.972 9.44-1.85 16.6-2.07 16.9-0.21 0.256-3.13 0.331-12.9 0.331-11.3 0-12.7-0.0442-12.8-0.421zm73.1 0.154c-0.0928-0.15-0.583-1.79-1.09-3.64-1.23-4.52-3.34-11.1-4.77-15-0.644-1.73-1.12-3.29-1.05-3.46 0.175-0.456 30.5-10.4 30.8-10.1 0.0697 0.0697-0.119 2.01-0.42 4.32-0.867 6.65-1.57 13.8-1.89 19.4-0.164 2.84-0.378 5.93-0.476 6.88l-0.177 1.72-10.4 0.0692c-6.91 0.0461-10.4-0.0218-10.5-0.204zm29.3-0.13c-0.325-0.848 1.25-14.9 2.43-21.6 0.76-4.33 2.41-12.1 2.76-13.1 0.26-0.684 1.4-1.02 15.3-4.55 6.94-1.76 8.17-2.01 9.39-1.86 0.775 0.0968 1.57 0.275 1.76 0.396 0.266 0.165-0.333 1.08-2.39 3.63-1.51 1.87-3.48 4.55-4.38 5.95-4.38 6.8-9.18 17.7-11.1 25.2-0.367 1.46-0.904 3.45-1.19 4.43l-0.525 1.79h-5.95c-5.05 0-5.97-0.0604-6.1-0.397zm136 0.221c-0.265-0.265-0.212-1.36 0.0752-1.54 0.325-0.201 7.78 1.06 8.4 1.42 0.34 0.198-0.752 0.277-3.92 0.283-2.41 4e-3 -4.47-0.0713-4.56-0.168zm23.8-2.72c-3.38-0.846-16.2-3.6-19.8-4.26-2.47-0.449-4.59-0.906-4.7-1.02-0.113-0.11-0.323-1.26-0.468-2.56-0.477-4.29-1.06-8.17-1.25-8.36-0.105-0.102-3.17-1.38-6.81-2.84-25.1-10.1-55.3-19-87.6-26-8.02-1.73-10-2.08-11.2-1.94l-1.36 0.166-2.87-2.35c-2.66-2.18-7.8-6.17-12.9-10-1.16-0.876-3.87-2.82-6.02-4.31-2.15-1.5-3.9-2.82-3.9-2.94 0-0.288 3.95-1.2 18.8-4.34 4.44-0.94 8.5-1.79 9.03-1.88 1.08-0.196 2.55 0.0769 15.3 2.83 17.3 3.74 41.8 10.1 57.2 14.9 20.5 6.42 39.1 13.4 53.9 20.1 2.43 1.11 3.28 1.62 3.37 2.04 0.388 1.81 2.52 23.7 2.94 30.1 0.203 3.16 0.263 3.06-1.61 2.59z"
                fill="#ababaa" />
            <path
                d="m-465 347c-0.097-0.097-0.176-45.2-0.176-100v-100l-1.64-1.26c-0.902-0.691-3.67-2.87-6.15-4.84-5.1-4.05-12-9.32-20-15.3-3-2.26-5.45-4.28-5.45-4.5 0-0.351 4.87-0.405 42-0.464 39.8-0.0635 42-0.0427 42.2 0.397 0.14 0.27 0.257 13.5 0.28 31.7 0.0215 17.2 0.106 31.3 0.188 31.4 0.0817 0.0817 9.41 0.181 20.7 0.221 17.2 0.0604 20.6 0.0124 20.9-0.29 0.22-0.266 0.319-8.78 0.368-31.8l0.0672-31.5 25.4-0.0675c14.5-0.0385 25.5 0.0331 25.6 0.167 0.261 0.261 0.319 160 0.0577 160-0.177 0.286-50 0.385-50.8 0.101-0.378-0.145-0.419-2.71-0.423-26.3-2e-3 -14.4-0.099-26.2-0.215-26.4-0.167-0.263-4.54-0.318-21-0.265l-20.8 0.0678-0.132 31.5-0.132 31.5-2.53 2.75c-1.39 1.52-3.41 3.77-4.48 5-2.53 2.91-11.7 13.2-16.8 18.8-2.18 2.4-5.52 6.1-7.41 8.23-12.3 13.8-19.2 21.4-19.4 21.4-0.107 0-0.275-0.0794-0.372-0.176zm9.41-17.1c2.26-2.51 4.86-5.41 5.79-6.45 3.04-3.39 8.5-9.38 12.4-13.6 2.09-2.27 5.01-5.49 6.48-7.16 1.47-1.67 3.74-4.22 5.06-5.67 1.31-1.44 3.48-3.87 4.83-5.4l2.45-2.77v-32.6c0-25 0.074-32.7 0.318-32.9 0.46-0.46 50.5-0.46 51 0 0.243 0.243 0.318 6.42 0.318 26.2 0 14.2 0.0723 26 0.161 26.3 0.145 0.377 2.22 0.419 20.8 0.419 12.8 0 20.7-0.0957 20.7-0.253 0.0859-0.139 0.151-34.2 0.144-75.6-9e-3 -59.5-0.0805-75.4-0.339-75.5-0.38-0.241-40.4-0.295-41.1-0.0553-0.378 0.145-0.419 3.17-0.419 31.6 0 24.1-0.0741 31.5-0.318 31.7-0.46 0.46-50.5 0.46-51 0-0.243-0.243-0.318-7.62-0.318-31.6 0-26-0.0604-31.3-0.359-31.6-0.496-0.411-65.8-0.294-66 0.118-0.0516 0.155 0.474 0.686 1.17 1.18 0.694 0.494 2.93 2.21 4.97 3.81s5.91 4.58 8.6 6.63c6.57 4.98 9.18 7.08 9.43 7.55 0.115 0.218 0.238 40 0.275 88.4 0.0369 48.4 0.0704 91.1 0.0744 94.9 6e-3 5.7 0.0722 6.95 0.37 6.95 0.2 0 2.21-2.05 4.46-4.56zm-2.8-0.639c-0.097-0.097-0.176-41.9-0.176-92.9 0-62.6-0.0877-92.9-0.27-93.2-0.149-0.278-2.2-1.97-4.56-3.77-12.4-9.39-15.6-12-15.4-12.4 0.0959-0.155 11.2-0.251 29.1-0.251h28.9l0.114 0.728c0.0627 0.4 0.0868 14.5 0.0538 31.4-0.0331 16.9-2e-3 30.9 0.0697 31.2 0.123 0.439 1.61 0.461 27.7 0.397l27.6-0.0674 0.132-31.5c0.0907-21.6 0.22-31.6 0.412-31.8 0.192-0.192 6.09-0.258 18.9-0.212l18.6 0.0679v147l-18.6 0.0679c-16.6 0.0608-18.6 0.0241-19-0.35-0.375-0.375-0.418-3.1-0.418-26.6v-26.2l-55.4 0.135-0.077 66.8-0.623 0.773c-0.783 0.971-12.4 14-15.8 17.8-1.4 1.53-6.62 7.27-11.6 12.8s-9.16 9.99-9.27 9.99c-0.109 0-0.277-0.0794-0.374-0.176zm290 15.8c-2.89-2.2-11.7-9.12-16.5-12.9-2.4-1.91-7.04-5.56-10.3-8.1-3.27-2.54-9.52-7.43-13.9-10.8-4.37-3.42-9.72-7.61-11.9-9.3-2.18-1.69-5.87-4.58-8.2-6.42-2.33-1.84-5.54-4.34-7.14-5.55-4.13-3.13-10.9-8.37-12.4-9.64l-1.32-1.08-43.7-0.265-1.72-1.32c-0.946-0.724-3.68-2.94-6.08-4.92-2.4-1.98-5.68-4.62-7.28-5.86-1.6-1.24-3.14-2.51-3.42-2.83-0.497-0.555-0.506-1.83-0.461-63.7 0.0253-34.7 0.111-63.3 0.19-63.6 0.145-0.402 0.613-0.809 6.73-5.85 1.82-1.5 4.62-3.86 6.22-5.25 3.08-2.67 4.85-4.16 7.35-6.18l1.53-1.24h104l3.95 3.08c2.17 1.7 5.14 4.05 6.59 5.24 1.46 1.18 4.28 3.44 6.28 5l3.64 2.85v60.1c0 39.9 0.0896 60.2 0.267 60.6 0.147 0.275 1.78 1.59 3.64 2.93 1.85 1.34 4.98 3.64 6.94 5.12s5.6 4.14 8.07 5.92c9.54 6.84 12.7 9.23 12.7 9.59 0 0.328-3.42 0.4-24.6 0.513-19.9 0.107-24.6 0.197-24.5 0.475 0.0386 0.188 2.3 2.51 5.03 5.16 2.73 2.65 6.64 6.48 8.71 8.52l3.75 3.71 0.11 23.4c0.0812 17.2 0.0308 23.5-0.192 23.8-0.262 0.358-0.547 0.227-2.14-0.985zm-2.49-26.5 5e-3 -17.8-3.14-3.04c-12-11.7-20.9-20.5-20.9-20.8 0-0.176 0.268-0.392 0.595-0.48 0.327-0.0878 10.7-0.161 23-0.163 13-2e-3 22.5-0.104 22.6-0.242 0.148-0.239-6.98-5.68-16.5-12.6-3-2.18-5.19-3.95-5.33-4.32-0.135-0.356-0.236-26.1-0.236-60.5 0-47.5-0.0683-59.9-0.331-60.3-0.182-0.22-2.24-1.9-4.56-3.74-2.33-1.84-6.12-4.83-8.42-6.66l-4.19-3.32h-101l-1.12 0.995c-1.39 1.24-3.16 2.73-8.4 7.1-2.26 1.88-5.32 4.48-6.81 5.78l-2.71 2.36-3e-3 3.46c-0.01 11-0.0162 114-7e-3 116l0.0105 2.83 2.58 2.22c1.42 1.22 5 4.14 7.96 6.5l5.38 4.28h43l1.08 0.728c0.593 0.4 2.49 1.83 4.21 3.18 1.72 1.35 5.21 4.08 7.76 6.07 2.55 1.99 6.65 5.17 9.13 7.06s6.03 4.68 7.91 6.2 4.56 3.6 5.95 4.63c1.4 1.03 4.03 3.08 5.85 4.55 1.82 1.47 4.62 3.67 6.22 4.9 1.6 1.22 5.65 4.38 9 7.01 20.5 16.1 20.4 16.1 20.8 15.9 0.129-0.0794 0.234-8.05 0.236-17.9zm-7.51 10.1c-2.7-2.07-8.86-6.87-13.7-10.6s-10.3-8.01-12-9.39c-2.92-2.27-6.93-5.41-20.4-16-2.42-1.9-5.58-4.35-7.04-5.46s-5.68-4.4-9.39-7.33l-6.75-5.32-15.5-9e-3c-8.51-5e-3 -16.7-0.0551-18.3-0.111-1.53-0.0558-4.44-0.115-6.48-0.132l-3.7-0.0308-3.7-3.07c-2.04-1.69-5.19-4.27-7.01-5.74s-3.39-2.79-3.5-2.94c-0.107-0.153-0.196-27.3-0.198-60.4l-4e-3 -60.1 3.77-3.15c2.07-1.73 6.08-5.13 8.91-7.55l5.14-4.41h99.1l3.66 2.77c2.01 1.53 5.69 4.36 8.16 6.31l4.5 3.54 0.265 121 3.84 2.74c8.05 5.74 13.7 10 13.8 10.3 9e-3 0.493-5.77 0.634-26 0.635-11.1 6.2e-4 -19.2 0.101-19.2 0.236 0 0.129 4.14 4.26 9.19 9.18 5.06 4.92 11.2 11 13.8 13.5l4.56 4.52v14.9c0 8.17-0.0723 15-0.161 15.3-0.0883 0.23-0.256 0.419-0.373 0.419s-2.42-1.7-5.11-3.77zm-46.2-83.8c0.333-0.211-3.75-4.4-9.96-10.2-0.932-0.873-1.63-1.74-1.58-1.97 0.0704-0.366 1.56-0.429 12.9-0.546l12.8-0.132-0.105-38c-0.0756-27.2-0.188-38-0.397-38.2-0.411-0.291-56.5-0.154-57.1 0.14-0.465 0.229-0.481 1.83-0.438 42.4 0.0246 23.2 0.107 43.1 0.183 44.3l0.138 2.18 20.4 0.0694c11.2 0.0382 20.9 0.0966 21.6 0.13 0.655 0.0332 1.35-0.0413 1.55-0.166zm-41.4-2.32c-0.474-0.191-0.487-84-0.0132-84.4 0.428-0.428 53.3-0.464 53.5-0.037 0.0953 0.154 0.156 16.3 0.136 35.9-0.029 27.5-0.111 35.7-0.356 35.8-0.175 0.111-6.45 0.206-13.9 0.21-7.49 4e-3 -13.9 0.0795-14.2 0.167s-0.595 0.271-0.595 0.407c0 0.28 1.56 1.83 7.5 7.45 2.28 2.16 4.14 4.09 4.14 4.3 0 0.319-2.64 0.371-17.9 0.353-9.86-0.0115-18.1-0.081-18.3-0.154zm24.5-4.9c-0.0572-0.171-2.66-2.84-5.78-5.94-4.16-4.12-5.59-5.71-5.38-5.92 0.208-0.208 5.4-0.312 17.8-0.357 15-0.054 17.6-0.119 17.8-0.447 0.17-0.245 0.211-2.39 0.115-5.92-0.0833-3.04-0.151-17-0.151-31v-25.5l-44.3 0.135-0.068 37.3c-0.0374 20.5-0.0114 37.5 0.0578 37.6 0.178 0.467 20.1 0.486 19.9 0.0189z"
                fill="#f9a03f" />
            <path
                d="m-465 246c0-65.1-0.0906-99.8-0.261-100-0.144-0.268-1.13-1.11-2.18-1.88-1.06-0.766-3.95-3.02-6.42-5-4.18-3.35-8.14-6.4-17.7-13.6-2.08-1.56-4.43-3.35-5.23-3.97l-1.46-1.12 2.91-0.135c4.03-0.187 80-0.0541 80.3 0.141 0.162 0.1 0.255 11.7 0.255 31.6 0 17.3 0.0895 31.5 0.199 31.6s9.7 0.161 21.3 0.207c18.4 0.0732 21.1 0.0335 21.4-0.306 0.149-0.235 0.248-12.8 0.251-31.8 3e-3 -24.9 0.0726-31.4 0.335-31.5 0.182-0.052 11.5-0.0349 25.2 0.0378l24.9 0.132v160l-50.4 0.135v-25.9c0-16.2-0.0967-26.2-0.258-26.6l-0.258-0.679h-21c-16 0-21.1 0.0759-21.3 0.318-0.243 0.243-0.32 7.65-0.328 31.7l-0.0107 31.4-3.36 3.73c-1.85 2.05-5.03 5.61-7.07 7.9-5.04 5.68-10.7 12-16.4 18.3-6.54 7.24-12.9 14.3-16.8 18.7-3.77 4.27-6.13 6.75-6.42 6.75-0.114 0-0.207-44.8-0.207-99.6zm6.16 87.4c0.716-0.764 3.37-3.71 5.9-6.55 2.53-2.84 5.82-6.48 7.31-8.1 3.79-4.1 9.07-9.9 12.5-13.7 1.58-1.76 4.26-4.75 5.95-6.63 3.95-4.38 7.74-8.64 8.24-9.27 0.346-0.427 0.414-4.65 0.529-33.2l0.132-32.7 50.4-0.135v26.1c0 17.5 0.0904 26.2 0.274 26.6 0.267 0.499 0.781 0.512 21.1 0.512 15.9 0 20.9-0.0759 21.2-0.318 0.245-0.245 0.318-17.5 0.318-76.1 0-74.6-8e-3 -75.7-0.512-76-0.804-0.43-41.3-0.375-41.9 0.0568-0.416 0.307-0.453 2.59-0.514 31.8l-0.0657 31.5h-50.3l-0.132-31.4c-0.129-30.7-0.144-31.4-0.646-31.8-0.437-0.32-5.41-0.376-33.4-0.376-18.1 0-33.1 0.0723-33.3 0.161-0.863 0.331-0.408 1.12 1.37 2.38 0.982 0.697 3.45 2.59 5.49 4.2 2.04 1.61 5.43 4.23 7.54 5.82 2.11 1.59 5.15 3.95 6.75 5.25l2.91 2.37 0.169 2.41c0.0928 1.33 0.182 44.2 0.198 95.3 0.0163 51.1 0.109 93 0.206 93.1 0.425 0.425 1.07 0.0835 2.28-1.21zm0.0971-4.61c-0.097-0.097-0.176-41.9-0.176-92.9 0-62.6-0.0877-92.9-0.27-93.2-0.149-0.278-2.2-1.97-4.56-3.77-12.4-9.39-15.6-12-15.4-12.4 0.0959-0.155 11.2-0.251 29.1-0.251h28.9l0.114 0.728c0.0627 0.4 0.0868 14.5 0.0538 31.4-0.0331 16.9-2e-3 30.9 0.0697 31.2 0.123 0.439 1.61 0.461 27.7 0.397l27.6-0.0674 0.132-31.5c0.0907-21.6 0.22-31.6 0.412-31.8 0.192-0.192 6.09-0.258 18.9-0.212l18.6 0.0679v147l-18.6 0.0679c-16.6 0.0608-18.6 0.0241-19-0.35-0.375-0.375-0.418-3.1-0.418-26.6v-26.2l-55.4 0.135-0.077 66.8-0.623 0.773c-0.783 0.971-12.4 14-15.8 17.8-1.4 1.53-6.62 7.27-11.6 12.8s-9.16 9.99-9.27 9.99c-0.109 0-0.277-0.0794-0.374-0.176zm287 13.1c-2.3-1.77-5.86-4.55-7.89-6.17-2.04-1.62-5.73-4.55-8.2-6.52-2.47-1.97-6.34-4.99-8.6-6.72-2.26-1.73-5.58-4.34-7.4-5.8-1.81-1.46-5.23-4.15-7.58-5.96-8.78-6.77-13.3-10.3-18.3-14.3-2.85-2.26-6.54-5.13-8.22-6.39-1.67-1.25-4.35-3.3-5.95-4.56-1.6-1.25-3.82-2.99-4.94-3.87l-2.03-1.59h-21.5c-15.8 0-21.6-0.0811-22-0.308-0.835-0.447-3.49-2.53-7.86-6.18-2.11-1.76-5.13-4.21-6.71-5.44-1.58-1.23-3.12-2.43-3.42-2.67l-0.544-0.434 0.055-127 0.88-0.75c0.484-0.413 2.73-2.26 4.98-4.1 2.26-1.84 4.87-4.05 5.82-4.91 0.946-0.859 3.56-3.09 5.8-4.96l4.08-3.4 46.6-0.0661c25.6-0.0364 49-0.0216 52 0.0329l5.42 0.0991 2.08 1.62c1.14 0.891 3.82 3.03 5.96 4.74s5.25 4.18 6.93 5.47 3.49 2.74 4.04 3.23l0.993 0.882 0.0218 59.9c0.012 32.9 0.123 60.2 0.248 60.5 0.125 0.329 2.09 1.93 4.41 3.58 2.3 1.64 4.84 3.52 5.64 4.16 0.8 0.646 3.48 2.61 5.95 4.36s5.87 4.21 7.54 5.47 4.02 2.97 5.23 3.81c1.2 0.84 2.18 1.64 2.18 1.77 0 0.15-9.48 0.246-24.3 0.246-21.9 0-24.3 0.0424-24.7 0.419-0.372 0.448 1.53 2.42 13.1 13.5l4.72 4.55 0.118 23.1c0.0739 14.4 0.0241 23.2-0.133 23.3-0.138 0.0854-2.14-1.3-4.44-3.07zm0.546-5.67c0.0883-0.23 0.161-8.47 0.161-18.3v-17.9l-1.79-1.74c-17.7-17.3-22-21.5-21.9-21.7 0.0901-0.0902 10.5-0.223 23.1-0.296 20.4-0.118 22.9-0.178 23-0.541 0.0811-0.421-5.93-5.2-11.3-8.99-5.17-3.64-10.8-7.92-11-8.35-0.089-0.232-0.162-27.4-0.162-60.4v-59.9l-0.994-0.961c-1.08-1.04-4.96-4.17-9.99-8.03-1.75-1.34-4-3.13-5-3.97l-1.83-1.53h-101l-1.37 1.26c-2.04 1.87-4.65 4.1-8.63 7.35-1.95 1.6-4.34 3.62-5.31 4.49-0.966 0.873-2.25 2.03-2.86 2.56l-1.11 0.973v123l3.24 2.76c2.79 2.38 10.8 8.81 12.4 10 0.475 0.342 3.53 0.415 22.3 0.529l21.7 0.132 2.38 1.84c1.31 1.01 4.16 3.21 6.34 4.88 2.18 1.67 5.16 4.01 6.61 5.19 1.46 1.18 4.37 3.44 6.48 5.02s5.32 4.08 7.14 5.56c1.82 1.48 4.8 3.8 6.61 5.17s4.56 3.5 6.09 4.75c1.53 1.25 4.56 3.63 6.75 5.29s6.11 4.71 8.73 6.79c4.72 3.74 12.4 9.77 17.5 13.7 2.64 2.04 3.39 2.37 3.69 1.61zm-7.87-8.11c-2.7-2.07-8.86-6.87-13.7-10.6s-10.3-8.01-12-9.39c-2.92-2.27-6.93-5.41-20.4-16-2.42-1.9-5.58-4.35-7.04-5.46s-5.68-4.4-9.39-7.33l-6.75-5.32-15.5-9e-3c-8.51-5e-3 -16.7-0.0551-18.3-0.111-1.53-0.0558-4.44-0.115-6.48-0.132l-3.7-0.0308-3.7-3.07c-2.04-1.69-5.19-4.27-7.01-5.74s-3.39-2.79-3.5-2.94c-0.107-0.153-0.196-27.3-0.198-60.4l-4e-3 -60.1 3.77-3.15c2.07-1.73 6.08-5.13 8.91-7.55l5.14-4.41h99.1l3.66 2.77c2.01 1.53 5.69 4.36 8.16 6.31l4.5 3.54 0.265 121 3.84 2.74c8.05 5.74 13.7 10 13.8 10.3 9e-3 0.493-5.77 0.634-26 0.635-11.1 6.2e-4 -19.2 0.101-19.2 0.236 0 0.129 4.14 4.26 9.19 9.18 5.06 4.92 11.2 11 13.8 13.5l4.56 4.52v14.9c0 8.17-0.0723 15-0.161 15.3-0.0883 0.23-0.256 0.419-0.373 0.419s-2.42-1.7-5.11-3.77zm-46.2-83.8c0.333-0.211-3.75-4.4-9.96-10.2-0.932-0.873-1.63-1.74-1.58-1.97 0.0704-0.366 1.56-0.429 12.9-0.546l12.8-0.132-0.105-38c-0.0756-27.2-0.188-38-0.397-38.2-0.411-0.291-56.5-0.154-57.1 0.14-0.465 0.229-0.481 1.83-0.438 42.4 0.0246 23.2 0.107 43.1 0.183 44.3l0.138 2.18 20.4 0.0694c11.2 0.0382 20.9 0.0966 21.6 0.13 0.655 0.0332 1.35-0.0413 1.55-0.166zm-24.9-2.61-16.3-0.0702v-83.9h26.4c25 0 26.4 0.026 26.6 0.463 0.186 0.665 0.188 68.2 1e-3 69.6l-0.156 1.12h-12.6c-14.3 0-16.7 0.113-16.7 0.78 0 0.448 4.41 4.88 9.11 9.16 2.83 2.57 3.02 3.07 1.13 2.96-0.61-0.0352-8.46-0.0957-17.4-0.134zm8.72-4.2c0.122-0.317-1.33-1.89-5.44-5.89-3.08-3-5.6-5.59-5.6-5.76 5e-3 -0.43 8.21-0.633 22.7-0.562 8.51 0.0417 12-0.0265 12.3-0.236 0.214-0.214 0.286-8.94 0.261-31.7-0.0183-17.3-0.095-31.5-0.17-31.6-0.0755-0.122-10.2-0.222-22.4-0.222-17 0-22.4 0.0756-22.6 0.318-0.474 0.474-0.46 75.8 0.0132 76 0.182 0.0734 4.95 0.143 10.6 0.154 9.26 0.0189 10.3-0.0211 10.4-0.412z"
                fill="#9658d5" />
            <path
                d="m-465 246c0-65.1-0.0906-99.8-0.261-100-0.144-0.268-1.13-1.11-2.18-1.88-1.06-0.766-3.95-3.02-6.42-5-4.18-3.35-8.14-6.4-17.7-13.6-2.08-1.56-4.43-3.35-5.23-3.97l-1.46-1.12 2.91-0.135c4.03-0.187 80-0.0541 80.3 0.141 0.162 0.1 0.255 11.7 0.255 31.6 0 17.3 0.0895 31.5 0.199 31.6s9.7 0.161 21.3 0.207c18.4 0.0732 21.1 0.0335 21.4-0.306 0.149-0.235 0.248-12.8 0.251-31.8 3e-3 -24.9 0.0726-31.4 0.335-31.5 0.182-0.052 11.5-0.0349 25.2 0.0378l24.9 0.132v160l-50.4 0.135v-25.9c0-16.2-0.0967-26.2-0.258-26.6l-0.258-0.679h-21c-16 0-21.1 0.0759-21.3 0.318-0.243 0.243-0.32 7.65-0.328 31.7l-0.0107 31.4-3.36 3.73c-1.85 2.05-5.03 5.61-7.07 7.9-5.04 5.68-10.7 12-16.4 18.3-6.54 7.24-12.9 14.3-16.8 18.7-3.77 4.27-6.13 6.75-6.42 6.75-0.114 0-0.207-44.8-0.207-99.6zm6.16 87.4c0.716-0.764 3.37-3.71 5.9-6.55 2.53-2.84 5.82-6.48 7.31-8.1 3.79-4.1 9.07-9.9 12.5-13.7 1.58-1.76 4.26-4.75 5.95-6.63 3.95-4.38 7.74-8.64 8.24-9.27 0.346-0.427 0.414-4.65 0.529-33.2l0.132-32.7 50.4-0.135v26.1c0 17.5 0.0904 26.2 0.274 26.6 0.267 0.499 0.781 0.512 21.1 0.512 15.9 0 20.9-0.0759 21.2-0.318 0.245-0.245 0.318-17.5 0.318-76.1 0-74.6-8e-3 -75.7-0.512-76-0.804-0.43-41.3-0.375-41.9 0.0568-0.416 0.307-0.453 2.59-0.514 31.8l-0.0657 31.5h-50.3l-0.132-31.4c-0.129-30.7-0.144-31.4-0.646-31.8-0.437-0.32-5.41-0.376-33.4-0.376-18.1 0-33.1 0.0723-33.3 0.161-0.863 0.331-0.408 1.12 1.37 2.38 0.982 0.697 3.45 2.59 5.49 4.2 2.04 1.61 5.43 4.23 7.54 5.82 2.11 1.59 5.15 3.95 6.75 5.25l2.91 2.37 0.169 2.41c0.0928 1.33 0.182 44.2 0.198 95.3 0.0163 51.1 0.109 93 0.206 93.1 0.425 0.425 1.07 0.0835 2.28-1.21zm0.358-5.53c-0.0913-0.341-0.169-42.2-0.174-93-4e-3 -50.8-0.0951-92.5-0.202-92.6-0.107-0.158-2.22-1.82-4.69-3.69-2.47-1.87-5.65-4.3-7.05-5.4s-3.79-2.95-5.29-4.11l-2.74-2.12 12.6-0.2c6.91-0.11 19.8-0.17 28.6-0.132l16 0.0678 0.0672 31.7c0.0666 31.4 0.0718 31.7 0.598 32 0.656 0.351 54.7 0.299 55.4-0.0532 0.437-0.219 0.463-2 0.463-31.8v-31.6l2.71-0.172c1.49-0.0948 9.86-0.136 18.6-0.0916l15.9 0.0807 0.14 147h-37.3v-26.3c0-20.1-0.0748-26.3-0.318-26.6-0.424-0.424-55.7-0.465-55.9-0.0407-0.0941 0.152-0.156 15.3-0.137 33.6l0.0342 33.3-1 1.15c-4.19 4.8-11.3 12.7-25.2 28.1-11.7 13-10.8 12-11 11.2zm287 14c-2.3-1.77-5.86-4.55-7.89-6.17-2.04-1.62-5.73-4.55-8.2-6.52-2.47-1.97-6.34-4.99-8.6-6.72-2.26-1.73-5.58-4.34-7.4-5.8-1.81-1.46-5.23-4.15-7.58-5.96-8.78-6.77-13.3-10.3-18.3-14.3-2.85-2.26-6.54-5.13-8.22-6.39-1.67-1.25-4.35-3.3-5.95-4.56-1.6-1.25-3.82-2.99-4.94-3.87l-2.03-1.59h-21.5c-15.8 0-21.6-0.0811-22-0.308-0.835-0.447-3.49-2.53-7.86-6.18-2.11-1.76-5.13-4.21-6.71-5.44-1.58-1.23-3.12-2.43-3.42-2.67l-0.544-0.434 0.055-127 0.88-0.75c0.484-0.413 2.73-2.26 4.98-4.1 2.26-1.84 4.87-4.05 5.82-4.91 0.946-0.859 3.56-3.09 5.8-4.96l4.08-3.4 46.6-0.0661c25.6-0.0364 49-0.0216 52 0.0329l5.42 0.0991 2.08 1.62c1.14 0.891 3.82 3.03 5.96 4.74s5.25 4.18 6.93 5.47 3.49 2.74 4.04 3.23l0.993 0.882 0.0218 59.9c0.012 32.9 0.123 60.2 0.248 60.5 0.125 0.329 2.09 1.93 4.41 3.58 2.3 1.64 4.84 3.52 5.64 4.16 0.8 0.646 3.48 2.61 5.95 4.36s5.87 4.21 7.54 5.47 4.02 2.97 5.23 3.81c1.2 0.84 2.18 1.64 2.18 1.77 0 0.15-9.48 0.246-24.3 0.246-21.9 0-24.3 0.0424-24.7 0.419-0.372 0.448 1.53 2.42 13.1 13.5l4.72 4.55 0.118 23.1c0.0739 14.4 0.0241 23.2-0.133 23.3-0.138 0.0854-2.14-1.3-4.44-3.07zm0.546-5.67c0.0883-0.23 0.161-8.47 0.161-18.3v-17.9l-1.79-1.74c-17.7-17.3-22-21.5-21.9-21.7 0.0901-0.0902 10.5-0.223 23.1-0.296 20.4-0.118 22.9-0.178 23-0.541 0.0811-0.421-5.93-5.2-11.3-8.99-5.17-3.64-10.8-7.92-11-8.35-0.089-0.232-0.162-27.4-0.162-60.4v-59.9l-0.994-0.961c-1.08-1.04-4.96-4.17-9.99-8.03-1.75-1.34-4-3.13-5-3.97l-1.83-1.53h-101l-1.37 1.26c-2.04 1.87-4.65 4.1-8.63 7.35-1.95 1.6-4.34 3.62-5.31 4.49-0.966 0.873-2.25 2.03-2.86 2.56l-1.11 0.973v123l3.24 2.76c2.79 2.38 10.8 8.81 12.4 10 0.475 0.342 3.53 0.415 22.3 0.529l21.7 0.132 2.38 1.84c1.31 1.01 4.16 3.21 6.34 4.88 2.18 1.67 5.16 4.01 6.61 5.19 1.46 1.18 4.37 3.44 6.48 5.02s5.32 4.08 7.14 5.56c1.82 1.48 4.8 3.8 6.61 5.17s4.56 3.5 6.09 4.75c1.53 1.25 4.56 3.63 6.75 5.29s6.11 4.71 8.73 6.79c4.72 3.74 12.4 9.77 17.5 13.7 2.64 2.04 3.39 2.37 3.69 1.61zm-6.35-7.43c-1.87-1.41-4.54-3.46-5.92-4.56-1.38-1.1-5.73-4.51-9.66-7.57-3.93-3.06-8.27-6.45-9.66-7.54-1.38-1.08-5.43-4.26-9-7.05-7.89-6.19-14.3-11.2-20.1-15.7-2.4-1.85-6.64-5.17-9.43-7.37-2.78-2.2-5.57-4.37-6.19-4.82l-1.13-0.819h-21.6c-19.9 0-21.6-0.0357-22.3-0.449-0.36-0.247-2.38-1.89-4.49-3.65s-4.73-3.9-5.82-4.76c-1.09-0.86-2.37-1.92-2.84-2.36l-0.86-0.795v-120l2.05-1.67c2-1.63 9.59-8.07 13-11.1 0.946-0.823 2.03-1.7 2.4-1.94 0.635-0.412 4.22-0.439 49.9-0.375l49.2 0.0682 4.15 3.18c2.28 1.75 5.88 4.53 8 6.19l3.86 3.02 0.0648 56.5c0.0357 31.1 0.0654 58.3 0.0661 60.5 9.6e-4 2.89 0.0964 4.11 0.347 4.41 0.19 0.229 2.15 1.7 4.37 3.26 6.79 4.81 12.6 9.15 12.6 9.4 0 0.135-9.32 0.236-21.9 0.239-12 2e-3 -22.2 0.077-22.5 0.167-0.378 0.101-0.579 0.329-0.529 0.601 0.044 0.241 6.24 6.43 13.8 13.8l13.7 13.3v15.1c0 8.28-0.044 15.1-0.0977 15.1s-1.63-1.15-3.51-2.56zm-47-84.4c0.058-0.174-2.61-3-5.93-6.27l-6.04-5.96 12.5-9e-3c6.86-5e-3 12.7-0.0814 12.9-0.17 0.379-0.145 0.418-3.76 0.414-38.3-2e-3 -21-0.0989-38.3-0.215-38.5-0.167-0.264-6.2-0.318-29.3-0.265l-29.1 0.0673-0.0669 44.6c-0.0493 32.8 0.0118 44.6 0.232 44.9 0.413 0.498 44.4 0.407 44.6-0.0915zm-25.7-2.66-16.3-0.0702v-83.9h26.4c25 0 26.4 0.026 26.6 0.463 0.186 0.665 0.188 68.2 1e-3 69.6l-0.156 1.12h-12.6c-14.3 0-16.7 0.113-16.7 0.78 0 0.448 4.41 4.88 9.11 9.16 2.83 2.57 3.02 3.07 1.13 2.96-0.61-0.0352-8.46-0.0957-17.4-0.134zm8.72-4.2c0.122-0.317-1.33-1.89-5.44-5.89-3.08-3-5.6-5.59-5.6-5.76 5e-3 -0.43 8.21-0.633 22.7-0.562 8.51 0.0417 12-0.0265 12.3-0.236 0.214-0.214 0.286-8.94 0.261-31.7-0.0183-17.3-0.095-31.5-0.17-31.6-0.0755-0.122-10.2-0.222-22.4-0.222-17 0-22.4 0.0756-22.6 0.318-0.474 0.474-0.46 75.8 0.0132 76 0.182 0.0734 4.95 0.143 10.6 0.154 9.26 0.0189 10.3-0.0211 10.4-0.412z"
                fill="#f9a03f" />
            <path
                d="m-177 329c-1.87-1.41-4.54-3.46-5.92-4.56-1.38-1.1-5.73-4.51-9.66-7.57-3.93-3.06-8.27-6.45-9.66-7.54-1.38-1.08-5.43-4.26-9-7.05-7.89-6.19-14.3-11.2-20.1-15.7-2.4-1.85-6.64-5.17-9.43-7.37-2.78-2.2-5.57-4.37-6.19-4.82l-1.13-0.819h-21.6c-19.9 0-21.6-0.0357-22.3-0.449-0.36-0.247-2.38-1.89-4.49-3.65s-4.73-3.9-5.82-4.76c-1.09-0.86-2.37-1.92-2.84-2.36l-0.86-0.795v-120l2.05-1.67c2-1.63 9.59-8.07 13-11.1 0.946-0.823 2.03-1.7 2.4-1.94 0.635-0.412 4.22-0.439 49.9-0.375l49.2 0.0682 4.15 3.18c2.28 1.75 5.88 4.53 8 6.19l3.86 3.02 0.0648 56.5c0.0357 31.1 0.0654 58.3 0.0661 60.5 9.6e-4 2.89 0.0964 4.11 0.347 4.41 0.19 0.229 2.15 1.7 4.37 3.26 6.79 4.81 12.6 9.15 12.6 9.4 0 0.135-9.32 0.236-21.9 0.239-12 2e-3 -22.2 0.077-22.5 0.167-0.378 0.101-0.579 0.329-0.529 0.601 0.044 0.241 6.24 6.43 13.8 13.8l13.7 13.3v15.1c0 8.28-0.044 15.1-0.0977 15.1s-1.63-1.15-3.51-2.56zm-47-84.4c0.058-0.174-2.61-3-5.93-6.27l-6.04-5.96 12.5-9e-3c6.86-5e-3 12.7-0.0814 12.9-0.17 0.379-0.145 0.418-3.76 0.414-38.3-2e-3 -21-0.0989-38.3-0.215-38.5-0.167-0.264-6.2-0.318-29.3-0.265l-29.1 0.0673-0.0669 44.6c-0.0493 32.8 0.0118 44.6 0.232 44.9 0.413 0.498 44.4 0.407 44.6-0.0915zm-234 83.5c-0.0913-0.341-0.169-42.2-0.174-93-4e-3 -50.8-0.0951-92.5-0.202-92.6-0.107-0.158-2.22-1.82-4.69-3.69-2.47-1.87-5.65-4.3-7.05-5.4s-3.79-2.95-5.29-4.11l-2.74-2.12 12.6-0.2c6.91-0.11 19.8-0.17 28.6-0.132l16 0.0678 0.0672 31.7c0.0666 31.4 0.0718 31.7 0.598 32 0.656 0.351 54.7 0.299 55.4-0.0532 0.437-0.219 0.463-2 0.463-31.8v-31.6l2.71-0.172c1.49-0.0948 9.86-0.136 18.6-0.0916l15.9 0.0807 0.14 147h-37.3v-26.3c0-20.1-0.0748-26.3-0.318-26.6-0.424-0.424-55.7-0.465-55.9-0.0407-0.0941 0.152-0.156 15.3-0.137 33.6l0.0342 33.3-1 1.15c-4.19 4.8-11.3 12.7-25.2 28.1-11.7 13-10.8 12-11 11.2z"
                fill="#6c00ea" />
        </g>
    </g>
</svg>